<svg id="visual" viewBox="0 0 900 600" width="900" height="600" xmlns="http://www.w3.org/2000/svg" xmlns:xlink="http://www.w3.org/1999/xlink" version="1.1"><rect x="0" y="0" width="900" height="600" fill="#171717"></rect><path d="M610 600L608.3 575C606.7 550 603.3 500 612.7 450C622 400 644 350 631.2 300C618.3 250 570.7 200 558.8 150C547 100 571 50 583 25L595 0L900 0L900 25C900 50 900 100 900 150C900 200 900 250 900 300C900 350 900 400 900 450C900 500 900 550 900 575L900 600Z" fill="#fff"></path></svg>