<svg id="visual" viewBox="0 0 1900 1080" width="1900" height="1080" xmlns="http://www.w3.org/2000/svg" xmlns:xlink="http://www.w3.org/1999/xlink" version="1.1"><rect x="0" y="0" width="1900" height="1080" fill="#171717"></rect><path d="M1264 1080L1280.3 1035C1296.7 990 1329.3 900 1297.5 810C1265.7 720 1169.3 630 1121.8 540C1074.3 450 1075.7 360 1082 270C1088.3 180 1099.7 90 1105.3 45L1111 0L1900 0L1900 45C1900 90 1900 180 1900 270C1900 360 1900 450 1900 540C1900 630 1900 720 1900 810C1900 900 1900 990 1900 1035L1900 1080Z" fill="#131212"></path></svg>