<svg id="visual" viewBox="0 0 900 600" width="900" height="600" xmlns="http://www.w3.org/2000/svg" xmlns:xlink="http://www.w3.org/1999/xlink" version="1.1"><rect x="0" y="0" width="900" height="600" fill="#171717"></rect><path d="M520 600L508.5 575C497 550 474 500 479.2 450C484.3 400 517.7 350 538.7 300C559.7 250 568.3 200 546.5 150C524.7 100 472.3 50 446.2 25L420 0L900 0L900 25C900 50 900 100 900 150C900 200 900 250 900 300C900 350 900 400 900 450C900 500 900 550 900 575L900 600Z" fill="#ffffff"></path><path d="M660 600L645.5 575C631 550 602 500 577.2 450C552.3 400 531.7 350 540.8 300C550 250 589 200 615.8 150C642.7 100 657.3 50 664.7 25L672 0L900 0L900 25C900 50 900 100 900 150C900 200 900 250 900 300C900 350 900 400 900 450C900 500 900 550 900 575L900 600Z" fill="#ffffff"></path><path d="M659 600L660.5 575C662 550 665 500 665.2 450C665.3 400 662.7 350 656.2 300C649.7 250 639.3 200 643 150C646.7 100 664.3 50 673.2 25L682 0L900 0L900 25C900 50 900 100 900 150C900 200 900 250 900 300C900 350 900 400 900 450C900 500 900 550 900 575L900 600Z" fill="#f9f9f9"></path><path d="M804 600L802.8 575C801.7 550 799.3 500 797.8 450C796.3 400 795.7 350 801.7 300C807.7 250 820.3 200 815.8 150C811.3 100 789.7 50 778.8 25L768 0L900 0L900 25C900 50 900 100 900 150C900 200 900 250 900 300C900 350 900 400 900 450C900 500 900 550 900 575L900 600Z" fill="#eeeeee"></path></svg>